HIERARCHY
ROOT SpineBase
{
  OFFSET 0.000000 0.000000 0.000000
  CHANNELS 6 Xposition Yposition Zposition Zrotation Xrotation Yrotation
  JOINT SpineMid
  {
    OFFSET 0.000000 36.288520 0.000000
    CHANNELS 3 Zrotation Xrotation Yrotation
    JOINT SpineShoulder
    {
      OFFSET 0.135965 26.713010 -0.862549
      CHANNELS 3 Zrotation Xrotation Yrotation
      JOINT Neck
      {
        OFFSET 0.102279 8.754420 -0.645183
        CHANNELS 3 Zrotation Xrotation Yrotation
        JOINT Head
        {
          OFFSET 2.881750 11.231448 4.171219
          CHANNELS 3 Zrotation Xrotation Yrotation
          End Site
          {
            OFFSET 0 0 0
          }
        }
      }
      JOINT ShoulderLeft
      {
        OFFSET -2.315503 -6.773153 -15.048012
        CHANNELS 3 Zrotation Xrotation Yrotation
        JOINT ElbowLeft
        {
          OFFSET 2.543437 -29.561868 -7.230151
          CHANNELS 3 Zrotation Xrotation Yrotation
          JOINT WristLeft
          {
            OFFSET 6.862602 -25.297067 1.479572
            CHANNELS 3 Zrotation Xrotation Yrotation
            JOINT HandLeft
            {
              OFFSET -0.400562 -8.822014 3.143967
              CHANNELS 3 Zrotation Xrotation Yrotation
              JOINT HandTipLeft
              {
                OFFSET 3.167548 -7.427642 1.020224
                CHANNELS 3 Zrotation Xrotation Yrotation
                End Site
                {
                  OFFSET 0 0 0
                }
              }
              JOINT ThumbLeft
              {
                OFFSET 4.707841 2.871135 5.763768
                CHANNELS 3 Zrotation Xrotation Yrotation
                End Site
                {
                  OFFSET 0 0 0
                }
              }
            }
          }
        }
      }
      JOINT ShoulderRight
      {
        OFFSET 6.589829 -7.643882 16.247043
        CHANNELS 3 Zrotation Xrotation Yrotation
        JOINT ElbowRight
        {
          OFFSET 0.569892 -28.084554 9.519655
          CHANNELS 3 Zrotation Xrotation Yrotation
          JOINT WristRight
          {
            OFFSET 16.246754 18.505639 22.874379
            CHANNELS 3 Zrotation Xrotation Yrotation
            JOINT HandRight
            {
              OFFSET 2.102208 3.045958 1.795405
              CHANNELS 3 Zrotation Xrotation Yrotation
              JOINT HandTipRight
              {
                OFFSET 4.308522 4.353477 1.160074
                CHANNELS 3 Zrotation Xrotation Yrotation
                End Site
                {
                  OFFSET 0 0 0
                }
              }
              JOINT ThumbRight
              {
                OFFSET -2.995389 3.692165 -1.903559
                CHANNELS 3 Zrotation Xrotation Yrotation
                End Site
                {
                  OFFSET 0 0 0
                }
              }
            }
          }
        }
      }
    }
  }
  JOINT HipLeft
  {
    OFFSET -1.370001 1.060299 -8.713507
    CHANNELS 3 Zrotation Xrotation Yrotation
    JOINT KneeLeft
    {
      OFFSET -2.814540 -40.055234 7.362727
      CHANNELS 3 Zrotation Xrotation Yrotation
      JOINT AnkleLeft
      {
        OFFSET -6.218427 -36.927694 6.330621
        CHANNELS 3 Zrotation Xrotation Yrotation
        JOINT FootLeft
        {
          OFFSET 11.980374 -5.030225 -6.150066
          CHANNELS 3 Zrotation Xrotation Yrotation
          End Site
          {
            OFFSET 0 0 0
          }
        }
      }
    }
  }
  JOINT HipRight
  {
    OFFSET 2.630161 -0.140808 0.158308
    CHANNELS 3 Zrotation Xrotation Yrotation
    JOINT KneeRight
    {
      OFFSET -17.995206 -40.918092 11.964042
      CHANNELS 3 Zrotation Xrotation Yrotation
      JOINT AnkleRight
      {
        OFFSET -5.651663 -35.231075 8.147831
        CHANNELS 3 Zrotation Xrotation Yrotation
        JOINT FootRight
        {
          OFFSET 7.340956 -6.619954 -8.631733
          CHANNELS 3 Zrotation Xrotation Yrotation
          End Site
          {
            OFFSET 0 0 0
          }
        }
      }
    }
  }
}
MOTION
Frames: 16
Frame Time: 0.033333
-51.926366 83.529708 327.268827 -0.000000 0.000000 -65.730137 0.000000 0.000000 65.730137 -0.000000 0.000000 0.000000 -0.000000 0.000000 0.000000 0.000000 0.000000 0.000000 -0.000000 0.000000 0.000000 -0.000000 0.000000 0.000000 -0.000000 0.000000 0.000000 -0.000000 0.000000 0.000000 0.000000 0.000000 0.000000 0.000000 0.000000 0.000000 -0.000000 0.000000 0.000000 -0.000000 0.000000 0.000000 -0.000000 0.000000 0.000000 -0.000000 0.000000 0.000000 0.000000 0.000000 0.000000 0.000000 0.000000 0.000000 0.000000 0.000000 65.730137 -0.000000 0.000000 0.000000 -0.000000 0.000000 0.000000 0.000000 0.000000 0.000000 0.000000 0.000000 65.730137 -0.000000 0.000000 0.000000 -0.000000 0.000000 0.000000 0.000000 0.000000 0.000000
-51.918494 83.477146 327.184683 0.020736 -0.027386 -65.390246 -0.033533 -0.007448 65.390249 -0.000000 0.000000 0.000000 -0.000000 0.000000 0.000000 0.000000 0.000000 0.000000 -0.000000 0.000000 0.000000 -0.000000 0.000000 0.000000 -0.000000 0.000000 0.000000 -3.237848 -1.417210 -1.100678 0.000000 0.000000 0.000000 0.000000 0.000000 0.000000 -0.000000 0.000000 0.000000 -0.000000 0.000000 0.000000 0.650556 -2.481426 1.366209 -4.475572 2.680288 -0.257686 0.000000 0.000000 0.000000 0.000000 0.000000 0.000000 -0.033533 -0.007448 65.390249 -0.000000 0.000000 0.000000 -0.000000 0.000000 0.000000 0.000000 0.000000 0.000000 -0.033533 -0.007448 65.390249 -0.000000 0.000000 0.000000 -3.055046 -2.023337 1.779993 0.000000 0.000000 0.000000
-51.908362 83.429309 327.107211 0.041341 -0.058812 -65.047152 -0.070763 -0.012671 65.047165 -0.000000 0.000000 0.000000 0.467811 0.609160 -0.332217 0.000000 0.000000 0.000000 -0.000000 0.000000 0.000000 -0.000000 0.000000 0.000000 -0.000000 0.000000 0.000000 -5.971130 -2.471834 -2.043313 0.000000 0.000000 0.000000 0.000000 0.000000 0.000000 -0.000000 0.000000 0.000000 -0.155654 -0.548306 0.676222 1.289483 -3.768634 1.698414 -8.256751 4.572546 0.102790 0.000000 0.000000 0.000000 0.000000 0.000000 0.000000 -0.070763 -0.012671 65.047165 -0.000000 0.000000 0.000000 -0.000000 0.000000 0.000000 0.000000 0.000000 0.000000 -0.070763 -0.012671 65.047165 -0.000000 0.000000 0.000000 -5.578887 -3.823858 3.159241 0.000000 0.000000 0.000000
-51.895970 83.386196 327.036413 0.061817 -0.094278 -64.700167 -0.111653 -0.015598 64.700203 -0.000000 0.000000 0.000000 0.490007 0.864123 -0.406704 0.000000 0.000000 0.000000 -0.000000 0.000000 0.000000 -0.000000 0.000000 0.000000 -0.000000 0.000000 0.000000 -8.136991 -3.169886 -2.770195 0.000000 0.000000 0.000000 0.000000 0.000000 0.000000 -0.000000 0.000000 0.000000 -0.224553 -0.775307 0.963101 1.712783 -4.789694 2.099282 -11.281085 5.654878 0.831271 0.000000 0.000000 0.000000 0.000000 0.000000 0.000000 -0.111653 -0.015598 64.700203 -0.000000 0.000000 0.000000 -0.000000 0.000000 0.000000 0.000000 0.000000 0.000000 -0.111653 -0.015598 64.700203 -0.000000 0.000000 0.000000 -7.525280 -5.306352 4.138968 0.000000 0.000000 0.000000
-51.881318 83.347808 326.972288 0.082168 -0.133785 -64.348565 -0.156169 -0.016155 64.348639 -0.000000 0.000000 0.000000 0.369227 1.086057 -0.418166 0.000000 0.000000 0.000000 -0.000000 0.000000 0.000000 -0.000000 0.000000 0.000000 -0.000000 0.000000 0.000000 -9.696884 -3.525624 -3.240945 0.000000 0.000000 0.000000 0.000000 0.000000 0.000000 -0.000000 0.000000 0.000000 -0.288108 -0.970755 1.215968 1.991824 -5.315702 2.231995 -13.487795 5.947329 1.735954 0.000000 0.000000 0.000000 0.000000 0.000000 0.000000 -0.156169 -0.016155 64.348639 -0.000000 0.000000 0.000000 -0.000000 0.000000 0.000000 0.000000 0.000000 0.000000 -0.156169 -0.016155 64.348639 -0.000000 0.000000 0.000000 -8.870392 -6.403608 4.733745 0.000000 0.000000 0.000000
-51.864405 83.314144 326.914836 0.102396 -0.177333 -63.991573 -0.204275 -0.014265 63.991706 -0.000000 0.000000 0.000000 0.104481 1.274471 -0.365555 0.000000 0.000000 0.000000 -0.000000 0.000000 0.000000 -0.000000 0.000000 0.000000 -0.603921 -0.780564 -0.183408 -10.010746 -2.816884 -3.114770 0.000000 0.000000 0.000000 0.000000 0.000000 0.000000 -0.000000 0.000000 0.000000 -0.346706 -1.134588 1.434928 2.134418 -5.386558 2.114831 -14.831140 5.490677 2.691090 0.000000 0.000000 0.000000 0.000000 0.000000 0.000000 -0.204275 -0.014265 63.991706 -0.000000 0.000000 0.000000 -0.000000 0.000000 0.000000 0.000000 0.000000 0.000000 0.525665 0.048953 64.377946 -1.225220 0.760310 -0.591073 -8.725764 -7.229654 5.157533 0.000000 0.000000 0.000000
-51.827433 83.275864 326.860623 0.142660 -0.230533 -63.502742 -0.269965 -0.024822 63.502970 -0.000000 0.000000 0.000000 -0.134553 1.540491 -0.341690 0.000000 0.000000 0.000000 -0.000000 0.000000 0.000000 -0.000000 0.000000 0.000000 -0.711165 -1.401764 -0.197579 -9.341907 -2.795397 -3.216374 0.000000 0.000000 0.000000 0.000000 0.000000 0.000000 -0.000000 0.000000 0.000000 -0.338165 -1.367406 1.634277 0.667822 -3.874453 1.810649 -14.612540 3.089852 3.597804 0.000000 0.000000 0.000000 0.000000 0.000000 0.000000 -0.269965 -0.024822 63.502970 -0.307166 -0.756786 0.072638 0.308152 0.756385 -0.076701 0.000000 0.000000 0.000000 0.579968 -0.016702 63.949015 -1.397571 0.786630 -0.667405 -9.074289 -7.567297 5.407060 0.000000 0.000000 0.000000
-51.794909 83.243735 326.817394 0.170795 -0.286218 -63.193905 -0.332484 -0.023365 63.194263 -0.000000 0.000000 0.000000 -0.420936 1.472811 -0.214942 0.000000 0.000000 0.000000 -0.000000 0.000000 0.000000 -0.000000 0.000000 0.000000 -0.915554 -1.891298 -0.253934 -8.325509 -1.421713 -2.493198 0.000000 0.000000 0.000000 0.000000 0.000000 0.000000 -0.000000 0.000000 0.000000 -0.359542 -1.528194 1.806013 0.757183 -2.205736 0.521830 -15.158874 1.003550 4.673270 0.000000 0.000000 0.000000 0.000000 0.000000 0.000000 -1.106503 0.337737 63.131396 -0.244552 -1.729902 0.159567 0.274711 0.875466 -0.102607 0.000000 0.000000 0.000000 0.631424 -0.067411 63.697369 -1.496323 0.898606 -0.738988 -8.675793 -8.166194 4.090786 0.000000 0.000000 0.000000
-51.776763 83.235070 326.795959 0.187590 -0.353767 -62.864482 -0.400387 -0.005592 62.865042 -0.000000 0.000000 0.000000 -1.401296 1.626325 0.122005 0.000000 0.000000 0.000000 -0.000000 0.000000 0.000000 -0.000000 0.000000 0.000000 -1.175020 -2.300904 -0.335320 -6.846265 0.657436 -1.338625 0.000000 0.000000 0.000000 0.000000 0.000000 0.000000 -0.000000 0.000000 0.000000 -0.332527 -1.687547 1.917645 0.363166 -0.437818 -0.480175 -15.361881 -1.665065 5.917222 0.000000 0.000000 0.000000 0.000000 0.000000 0.000000 -1.339290 0.387252 62.782283 -0.187593 -1.997859 0.198722 0.271125 0.982293 -0.121488 0.000000 0.000000 0.000000 0.697483 -0.070863 63.437490 -1.624877 1.128346 -0.838096 -7.483386 -7.564788 3.375061 0.000000 0.000000 0.000000
-51.770260 83.225997 326.749058 0.190717 -0.392562 -62.456475 -0.436260 0.012426 62.457175 -0.000000 0.000000 0.000000 -2.735369 1.763977 0.598465 0.000000 0.000000 0.000000 -0.000000 0.000000 0.000000 -0.000000 0.000000 0.000000 -1.366610 -3.068013 -0.380477 -5.749774 4.236440 0.298344 0.000000 0.000000 0.000000 0.000000 0.000000 0.000000 -0.000000 0.000000 0.000000 -0.475468 -1.511887 1.933166 1.196083 -1.039945 -0.638505 -14.833791 -1.282327 5.893395 0.000000 0.000000 0.000000 0.000000 0.000000 0.000000 -1.510354 0.433857 62.357957 -0.133034 -2.205153 0.230409 0.262339 1.057078 -0.135725 0.000000 0.000000 0.000000 0.693318 -0.227025 63.038159 -1.411906 1.160225 -0.816379 -5.879485 -6.196980 2.552610 0.000000 0.000000 0.000000
-51.774757 83.229113 326.713130 0.178038 -0.425717 -62.090441 -0.459536 0.041936 62.091271 -0.000000 0.000000 0.000000 -4.008682 1.800479 1.074445 0.000000 0.000000 0.000000 -0.000000 0.000000 0.000000 -0.820659 0.146892 -0.007113 -0.480063 -3.774124 -0.330299 -5.896566 5.114275 0.470021 0.000000 0.000000 0.000000 0.000000 0.000000 0.000000 -0.000000 0.000000 0.000000 -0.419498 -1.621162 1.963812 0.638802 0.357730 -1.238470 -11.542934 -4.288279 6.939162 0.000000 0.000000 0.000000 0.000000 0.000000 0.000000 -1.658948 0.493610 61.977492 -0.072848 -2.355191 0.254794 0.242536 1.083128 -0.143396 0.000000 0.000000 0.000000 0.753213 -0.356077 62.709525 -1.259709 1.314017 -0.840032 -3.473350 -3.799917 2.035420 0.000000 0.000000 0.000000
-51.780303 83.215813 326.672593 0.167947 -0.450378 -61.668860 -0.476134 0.065901 61.669794 -0.000000 0.000000 0.000000 -5.286343 1.905864 1.535845 0.000000 0.000000 0.000000 -0.000000 0.000000 0.000000 -1.090762 0.081083 -0.041138 -0.636351 -4.622971 -0.431659 -6.308314 7.065970 1.172676 0.000000 0.000000 0.000000 0.000000 0.000000 0.000000 -0.000000 0.000000 0.000000 -0.275578 -1.874154 2.017996 -0.823330 2.134039 -1.458991 -11.124433 -3.767413 5.345342 0.000000 0.000000 0.000000 0.000000 0.000000 0.000000 -1.824309 0.577173 61.541762 -0.001321 -2.529895 0.282582 0.199810 1.100052 -0.153210 0.000000 0.000000 0.000000 0.839068 -0.552797 62.334659 -0.987239 1.549213 -0.861888 -2.868737 -3.025865 1.963810 0.000000 0.000000 0.000000
-51.747139 83.204696 326.633959 0.191291 -0.471295 -61.330039 -0.505287 0.058268 61.331083 -0.000000 0.000000 0.000000 -6.305890 2.051381 1.891426 0.000000 0.000000 0.000000 -0.000000 0.000000 0.000000 -1.401078 -0.026814 -0.089849 -0.665737 -4.759518 -0.508713 -7.834113 8.008529 1.630975 0.000000 0.000000 0.000000 0.000000 0.000000 0.000000 -0.000000 0.000000 0.000000 -0.126952 -2.047357 1.994201 -2.456981 3.602440 -1.303767 -8.966998 -4.659676 4.695343 0.000000 0.000000 0.000000 0.000000 0.000000 0.000000 -2.003392 0.574745 61.180410 0.110354 -2.669944 0.315172 1.896986 2.378946 0.673778 0.000000 0.000000 0.000000 0.873466 -0.880778 62.020303 0.182307 1.658131 -0.681962 -3.959751 -2.785482 2.128204 0.000000 0.000000 0.000000
-51.728601 83.195934 326.600281 0.193081 -0.483704 -60.970467 -0.516630 0.065894 60.971580 -0.000000 0.000000 0.000000 -6.871363 2.247678 2.066073 0.000000 0.000000 0.000000 -0.000000 0.000000 0.000000 -1.699514 -0.206044 -0.158983 -0.310682 -4.796636 -0.412305 -9.275798 7.757479 1.360060 0.000000 0.000000 0.000000 0.000000 0.000000 0.000000 -0.000000 0.000000 0.000000 -0.138845 -2.151515 2.104506 -2.156607 3.391950 -1.386718 -7.166744 -3.946632 4.009694 0.000000 0.000000 0.000000 0.000000 0.000000 0.000000 -2.092584 0.610242 60.812010 0.081657 -2.792273 0.321401 0.218314 1.149803 -0.158715 0.000000 0.000000 0.000000 0.918644 -1.214567 61.682894 0.446297 1.870880 -0.704213 -4.278468 -3.022298 2.289408 0.000000 0.000000 0.000000
-51.722948 83.182906 326.555921 0.182897 -0.483810 -60.765629 -0.511511 0.076680 60.766744 -0.000000 0.000000 0.000000 -6.961221 2.666340 2.017318 0.000000 0.000000 0.000000 -0.000000 0.000000 0.000000 -1.990625 -0.272914 -0.196114 -0.306377 -4.757356 -0.487979 -9.360791 9.519852 2.421575 0.000000 0.000000 0.000000 0.000000 0.000000 0.000000 -0.000000 0.000000 0.000000 -0.230977 -2.185550 2.248866 -1.029624 2.909207 -1.864765 -7.547752 -2.027334 2.969882 0.000000 0.000000 0.000000 0.000000 0.000000 0.000000 -2.094065 0.669851 60.612342 -0.106815 -2.955476 0.306184 -2.219542 -0.444368 -1.178550 0.000000 0.000000 0.000000 0.933970 -1.492097 61.476965 0.688061 2.019107 -0.704489 -4.470959 -3.087558 2.481683 0.000000 0.000000 0.000000
-51.704909 83.157533 326.516558 0.183433 -0.479993 -60.668355 -0.508314 0.075210 60.669457 -0.000000 0.000000 0.000000 -6.272562 3.105680 1.664761 0.000000 0.000000 0.000000 -0.000000 0.000000 0.000000 -2.197823 -0.331012 -0.225845 0.096994 -4.573133 -0.387138 -7.396369 10.438467 2.901939 0.000000 0.000000 0.000000 0.000000 0.000000 0.000000 -0.000000 0.000000 0.000000 -0.406959 -2.105628 2.390884 0.494753 2.086753 -2.407373 -6.510652 -0.661160 2.231048 0.000000 0.000000 0.000000 0.000000 0.000000 0.000000 -2.065604 0.692775 60.521601 -0.284115 -3.115595 0.296211 -3.896057 -1.480137 -2.015366 0.000000 0.000000 0.000000 0.948091 -1.759043 61.379142 0.912475 2.157022 -0.705459 -4.601472 -3.619974 2.014580 0.000000 0.000000 0.000000
